<svg xmlns="http://www.w3.org/2000/svg" xmlns:xlink="http://www.w3.org/1999/xlink" width="500" zoomAndPan="magnify" viewBox="0 0 375 374.999991" height="500" preserveAspectRatio="xMidYMid meet" version="1.0"><defs><clipPath id="28affa80b2"><path d="M 306 207 L 327.917969 207 L 327.917969 231 L 306 231 Z M 306 207 " clip-rule="nonzero"/></clipPath><clipPath id="dc5bc52d18"><path d="M 124.808594 214 L 137 214 L 137 225 L 124.808594 225 Z M 124.808594 214 " clip-rule="nonzero"/></clipPath><clipPath id="66731125ae"><path d="M 124.808594 203 L 137 203 L 137 214 L 124.808594 214 Z M 124.808594 203 " clip-rule="nonzero"/></clipPath><clipPath id="bbd3d4801b"><path d="M 134 219 L 146 219 L 146 229.65625 L 134 229.65625 Z M 134 219 " clip-rule="nonzero"/></clipPath><clipPath id="4a71b2cf18"><path d="M 134 198.15625 L 146 198.15625 L 146 208 L 134 208 Z M 134 198.15625 " clip-rule="nonzero"/></clipPath><clipPath id="8bc13cf298"><path d="M 144 214 L 155.558594 214 L 155.558594 225 L 144 225 Z M 144 214 " clip-rule="nonzero"/></clipPath><clipPath id="07fc053a79"><path d="M 144 203 L 155.558594 203 L 155.558594 214 L 144 214 Z M 144 203 " clip-rule="nonzero"/></clipPath><clipPath id="2edf43c557"><path d="M 255.886719 214 L 268 214 L 268 225 L 255.886719 225 Z M 255.886719 214 " clip-rule="nonzero"/></clipPath><clipPath id="740b3ed8bb"><path d="M 255.886719 203 L 268 203 L 268 214 L 255.886719 214 Z M 255.886719 203 " clip-rule="nonzero"/></clipPath><clipPath id="df14df90f8"><path d="M 265 219 L 277 219 L 277 229.65625 L 265 229.65625 Z M 265 219 " clip-rule="nonzero"/></clipPath><clipPath id="fa1bbf1c5c"><path d="M 265 198.15625 L 277 198.15625 L 277 208 L 265 208 Z M 265 198.15625 " clip-rule="nonzero"/></clipPath><clipPath id="c7982b7b0e"><path d="M 275 214 L 286.636719 214 L 286.636719 225 L 275 225 Z M 275 214 " clip-rule="nonzero"/></clipPath><clipPath id="3cc916fabc"><path d="M 275 203 L 286.636719 203 L 286.636719 214 L 275 214 Z M 275 203 " clip-rule="nonzero"/></clipPath></defs><path fill="#ffd21f" d="M 310.960938 190.578125 C 306.179688 185.367188 300.714844 181.007812 294.570312 177.503906 L 285.554688 193.328125 C 290.066406 195.890625 294.074219 199.082031 297.582031 202.902344 Z M 310.960938 190.578125 " fill-opacity="1" fill-rule="nonzero"/><g clip-path="url(#28affa80b2)"><path fill="#ffd21f" d="M 310.152344 230.167969 L 328.273438 228.34375 C 327.550781 221.214844 325.660156 214.410156 322.601562 207.929688 L 306.089844 215.632812 C 308.28125 220.242188 309.636719 225.085938 310.152344 230.167969 Z M 310.152344 230.167969 " fill-opacity="1" fill-rule="nonzero"/></g><path fill="#ffd21f" d="M 301.644531 255.757812 C 300.203125 257.171875 298.636719 258.429688 296.945312 259.53125 C 295.253906 260.632812 293.46875 261.558594 291.59375 262.304688 C 289.714844 263.050781 287.785156 263.601562 285.796875 263.960938 C 283.8125 264.324219 281.808594 264.484375 279.789062 264.445312 C 278.488281 264.386719 277.1875 264.277344 275.894531 264.117188 C 274.601562 263.953125 273.316406 263.742188 272.039062 263.476562 C 270.761719 263.214844 269.496094 262.898438 268.246094 262.535156 C 266.996094 262.171875 265.757812 261.757812 264.539062 261.292969 C 263.320312 260.832031 262.121094 260.320312 260.945312 259.761719 C 259.765625 259.203125 258.613281 258.597656 257.484375 257.949219 C 256.351562 257.296875 255.25 256.605469 254.175781 255.867188 C 253.101562 255.125 252.058594 254.347656 251.046875 253.523438 C 250.035156 252.703125 249.054688 251.84375 248.113281 250.945312 C 247.167969 250.042969 246.261719 249.109375 245.394531 248.136719 C 244.523438 247.164062 243.695312 246.160156 242.90625 245.121094 C 242.117188 244.082031 241.371094 243.015625 240.667969 241.917969 C 239.960938 240.820312 239.304688 239.699219 238.6875 238.546875 C 238.074219 237.398438 237.507812 236.226562 236.988281 235.03125 C 236.464844 233.835938 235.992188 232.621094 235.570312 231.386719 C 235.144531 230.15625 234.773438 228.90625 234.445312 227.644531 L 221.699219 175.828125 L 270.875 187.921875 L 275.226562 170.234375 L 248.664062 163.707031 C 249.523438 162.175781 250.304688 160.609375 251.015625 159.003906 C 251.722656 157.398438 252.351562 155.761719 252.902344 154.09375 C 253.453125 152.429688 253.921875 150.738281 254.308594 149.027344 C 254.699219 147.316406 255 145.589844 255.222656 143.847656 C 255.445312 142.109375 255.578125 140.359375 255.632812 138.605469 C 255.683594 136.851562 255.652344 135.097656 255.535156 133.347656 C 255.417969 131.597656 255.21875 129.855469 254.933594 128.125 C 254.648438 126.390625 254.277344 124.679688 253.828125 122.980469 C 253.378906 121.285156 252.847656 119.617188 252.234375 117.96875 C 251.625 116.324219 250.933594 114.714844 250.167969 113.136719 C 249.398438 111.558594 248.558594 110.019531 247.644531 108.523438 C 246.726562 107.027344 245.742188 105.574219 244.6875 104.175781 C 243.628906 102.773438 242.507812 101.425781 241.324219 100.128906 C 240.136719 98.835938 238.894531 97.601562 237.589844 96.429688 C 236.285156 95.253906 234.925781 94.148438 233.515625 93.105469 C 232.101562 92.0625 230.644531 91.089844 229.136719 90.1875 C 229.734375 88.304688 230.476562 86.484375 231.363281 84.71875 C 232.246094 82.957031 233.265625 81.273438 234.417969 79.667969 C 235.570312 78.066406 236.839844 76.566406 238.230469 75.164062 C 239.621094 73.761719 241.109375 72.480469 242.703125 71.3125 C 244.296875 70.148438 245.972656 69.113281 247.726562 68.214844 C 249.484375 67.3125 251.300781 66.558594 253.175781 65.945312 C 255.054688 65.332031 256.964844 64.871094 258.914062 64.5625 C 260.863281 64.25 262.824219 64.097656 264.800781 64.097656 L 264.800781 45.882812 C 263.363281 45.886719 261.929688 45.941406 260.496094 46.054688 C 259.066406 46.167969 257.640625 46.335938 256.21875 46.558594 C 254.800781 46.785156 253.394531 47.0625 251.996094 47.394531 C 250.597656 47.726562 249.214844 48.113281 247.847656 48.554688 C 246.480469 48.992188 245.132812 49.484375 243.800781 50.03125 C 242.472656 50.574219 241.167969 51.171875 239.882812 51.816406 C 238.601562 52.460938 237.34375 53.15625 236.113281 53.898438 C 234.886719 54.644531 233.6875 55.433594 232.519531 56.269531 C 231.351562 57.105469 230.21875 57.988281 229.117188 58.910156 C 228.019531 59.835938 226.957031 60.800781 225.929688 61.808594 C 224.90625 62.8125 223.921875 63.859375 222.976562 64.941406 C 222.035156 66.023438 221.132812 67.144531 220.277344 68.296875 C 219.421875 69.449219 218.609375 70.632812 217.84375 71.847656 C 217.078125 73.066406 216.363281 74.308594 215.695312 75.582031 C 215.023438 76.851562 214.40625 78.148438 213.839844 79.46875 C 213.269531 80.785156 212.753906 82.125 212.289062 83.484375 C 204.796875 81.902344 197.308594 81.902344 189.816406 83.484375 C 189.351562 82.125 188.835938 80.785156 188.265625 79.46875 C 187.699219 78.148438 187.082031 76.851562 186.410156 75.582031 C 185.742188 74.308594 185.027344 73.066406 184.261719 71.847656 C 183.496094 70.632812 182.683594 69.449219 181.828125 68.296875 C 180.972656 67.144531 180.070312 66.023438 179.128906 64.941406 C 178.183594 63.859375 177.199219 62.8125 176.175781 61.808594 C 175.148438 60.800781 174.085938 59.835938 172.988281 58.910156 C 171.886719 57.988281 170.753906 57.105469 169.585938 56.269531 C 168.417969 55.433594 167.21875 54.644531 165.992188 53.898438 C 164.761719 53.15625 163.503906 52.460938 162.222656 51.816406 C 160.9375 51.171875 159.632812 50.574219 158.304688 50.03125 C 156.972656 49.484375 155.625 48.992188 154.257812 48.554688 C 152.890625 48.113281 151.507812 47.726562 150.109375 47.394531 C 148.714844 47.0625 147.304688 46.785156 145.886719 46.558594 C 144.46875 46.335938 143.042969 46.167969 141.609375 46.054688 C 140.175781 45.941406 138.742188 45.886719 137.304688 45.882812 L 137.304688 64.097656 C 139.277344 64.097656 141.238281 64.253906 143.1875 64.566406 C 145.132812 64.878906 147.042969 65.339844 148.917969 65.953125 C 150.792969 66.566406 152.605469 67.324219 154.363281 68.226562 C 156.117188 69.125 157.789062 70.160156 159.378906 71.324219 C 160.972656 72.488281 162.460938 73.773438 163.847656 75.171875 C 165.238281 76.574219 166.507812 78.074219 167.65625 79.675781 C 168.808594 81.277344 169.824219 82.960938 170.710938 84.722656 C 171.59375 86.488281 172.335938 88.308594 172.929688 90.1875 C 171.425781 91.089844 169.964844 92.0625 168.550781 93.109375 C 167.136719 94.152344 165.777344 95.261719 164.46875 96.4375 C 163.164062 97.613281 161.917969 98.851562 160.730469 100.144531 C 159.542969 101.441406 158.421875 102.792969 157.367188 104.195312 C 156.308594 105.601562 155.324219 107.054688 154.40625 108.554688 C 153.492188 110.050781 152.648438 111.59375 151.882812 113.175781 C 151.117188 114.753906 150.425781 116.371094 149.816406 118.015625 C 149.203125 119.664062 148.675781 121.339844 148.226562 123.039062 C 147.777344 124.738281 147.410156 126.453125 147.125 128.1875 C 146.84375 129.921875 146.644531 131.664062 146.527344 133.417969 C 146.414062 135.171875 146.382812 136.929688 146.4375 138.683594 C 146.492188 140.441406 146.632812 142.191406 146.855469 143.933594 C 147.082031 145.675781 147.386719 147.40625 147.777344 149.117188 C 148.167969 150.832031 148.640625 152.523438 149.195312 154.191406 C 149.75 155.859375 150.382812 157.496094 151.097656 159.101562 C 151.808594 160.707031 152.597656 162.277344 153.460938 163.804688 L 124.238281 170.871094 C 121.378906 171.605469 118.578125 172.519531 115.839844 173.617188 C 113.101562 174.71875 110.445312 175.988281 107.871094 177.433594 C 105.296875 178.875 102.828125 180.480469 100.460938 182.246094 C 98.097656 184.011719 95.855469 185.925781 93.742188 187.984375 C 91.625 190.042969 89.652344 192.230469 87.824219 194.542969 C 85.992188 196.859375 84.320312 199.285156 82.804688 201.816406 C 81.292969 204.351562 79.949219 206.972656 78.773438 209.679688 C 77.601562 212.390625 76.609375 215.160156 75.800781 218 C 75.113281 220.171875 74.574219 222.375 74.183594 224.621094 C 73.792969 226.863281 73.554688 229.121094 73.464844 231.394531 C 73.378906 233.667969 73.441406 235.941406 73.65625 238.207031 C 73.875 240.472656 74.238281 242.714844 74.753906 244.929688 C 75.273438 247.148438 75.933594 249.320312 76.738281 251.449219 C 77.546875 253.578125 78.492188 255.644531 79.574219 257.644531 C 80.660156 259.648438 81.871094 261.566406 83.210938 263.40625 C 84.550781 265.246094 86.011719 266.988281 87.582031 268.632812 C 89.882812 270.898438 92.378906 272.914062 95.078125 274.683594 C 97.777344 276.453125 100.621094 277.941406 103.617188 279.144531 C 106.609375 280.347656 109.691406 281.246094 112.863281 281.835938 C 116.035156 282.429688 119.234375 282.703125 122.460938 282.65625 C 127.816406 282.628906 133.066406 281.882812 138.21875 280.417969 C 139.855469 279.953125 141.414062 279.296875 143.007812 278.714844 C 150.078125 289.113281 158.078125 298.734375 167.011719 307.585938 C 175.945312 316.433594 185.644531 324.34375 196.109375 331.3125 L 201.015625 334.457031 L 205.925781 331.3125 C 216.363281 324.359375 226.039062 316.46875 234.957031 307.644531 C 243.871094 298.820312 251.863281 289.226562 258.925781 278.859375 C 265.652344 281.367188 272.609375 282.632812 279.789062 282.65625 C 283.007812 282.714844 286.195312 282.449219 289.359375 281.863281 C 292.523438 281.277344 295.597656 280.378906 298.582031 279.175781 C 301.566406 277.972656 304.398438 276.480469 307.082031 274.707031 C 309.765625 272.929688 312.246094 270.90625 314.523438 268.632812 C 317.125 266.042969 319.394531 263.183594 321.328125 260.0625 C 323.261719 256.9375 324.808594 253.632812 325.96875 250.144531 L 308.667969 244.382812 C 307.230469 248.730469 304.890625 252.523438 301.644531 255.757812 Z M 201.054688 100.523438 C 202.746094 100.515625 204.429688 100.628906 206.105469 100.859375 C 207.785156 101.085938 209.4375 101.429688 211.066406 101.890625 C 212.695312 102.351562 214.28125 102.925781 215.832031 103.605469 C 217.378906 104.289062 218.875 105.078125 220.3125 105.96875 C 221.75 106.859375 223.121094 107.847656 224.421875 108.929688 C 225.722656 110.011719 226.9375 111.183594 228.078125 112.433594 C 229.214844 113.6875 230.257812 115.015625 231.207031 116.414062 C 232.160156 117.816406 233.007812 119.273438 233.757812 120.792969 C 234.503906 122.3125 235.140625 123.875 235.667969 125.484375 C 236.199219 127.089844 236.613281 128.726562 236.910156 130.394531 C 237.210938 132.058594 237.394531 133.738281 237.457031 135.429688 C 237.523438 137.121094 237.46875 138.808594 237.296875 140.492188 C 237.125 142.175781 236.835938 143.839844 236.433594 145.480469 C 236.027344 147.125 235.511719 148.734375 234.882812 150.304688 C 234.253906 151.875 233.519531 153.394531 232.675781 154.863281 C 231.835938 156.332031 230.894531 157.734375 229.855469 159.070312 L 215.039062 155.429688 L 201.054688 155.164062 L 201.054688 164.269531 L 200.878906 164.269531 L 201.054688 155.164062 L 189.214844 155.164062 L 172.359375 159.234375 C 171.308594 157.898438 170.359375 156.5 169.507812 155.03125 C 168.65625 153.5625 167.910156 152.042969 167.269531 150.46875 C 166.632812 148.898438 166.105469 147.289062 165.695312 145.644531 C 165.28125 143.996094 164.984375 142.328125 164.804688 140.640625 C 164.625 138.953125 164.566406 137.261719 164.625 135.566406 C 164.683594 133.871094 164.859375 132.1875 165.152344 130.515625 C 165.449219 128.84375 165.859375 127.199219 166.382812 125.585938 C 166.910156 123.972656 167.542969 122.402344 168.289062 120.878906 C 169.035156 119.351562 169.882812 117.886719 170.832031 116.480469 C 171.785156 115.078125 172.828125 113.742188 173.964844 112.484375 C 175.105469 111.226562 176.324219 110.050781 177.625 108.964844 C 178.929688 107.875 180.300781 106.882812 181.742188 105.988281 C 183.183594 105.09375 184.683594 104.300781 186.234375 103.617188 C 187.785156 102.929688 189.378906 102.355469 191.011719 101.894531 C 192.644531 101.433594 194.304688 101.085938 195.984375 100.855469 C 197.667969 100.628906 199.355469 100.515625 201.054688 100.523438 Z M 213.601562 218.910156 L 188.558594 218.910156 L 197.511719 182.484375 L 204.796875 182.484375 Z M 133.335938 262.878906 C 131.941406 263.351562 130.519531 263.730469 129.070312 264.011719 C 127.621094 264.292969 126.164062 264.472656 124.691406 264.558594 C 123.21875 264.640625 121.75 264.625 120.277344 264.511719 C 118.808594 264.394531 117.351562 264.179688 115.910156 263.871094 C 114.472656 263.558594 113.058594 263.148438 111.671875 262.644531 C 110.285156 262.144531 108.941406 261.546875 107.636719 260.863281 C 106.328125 260.175781 105.078125 259.40625 103.875 258.550781 C 102.675781 257.695312 101.535156 256.765625 100.460938 255.757812 C 99.449219 254.679688 98.519531 253.542969 97.664062 252.339844 C 96.808594 251.140625 96.035156 249.886719 95.351562 248.582031 C 94.664062 247.273438 94.070312 245.929688 93.566406 244.542969 C 93.0625 243.15625 92.65625 241.742188 92.34375 240.300781 C 92.03125 238.859375 91.816406 237.402344 91.703125 235.933594 C 91.585938 234.460938 91.570312 232.992188 91.65625 231.519531 C 91.742188 230.046875 91.921875 228.585938 92.203125 227.136719 C 92.488281 225.691406 92.863281 224.269531 93.339844 222.871094 C 93.929688 220.804688 94.652344 218.789062 95.503906 216.816406 C 96.355469 214.84375 97.332031 212.9375 98.433594 211.09375 C 99.539062 209.25 100.753906 207.484375 102.085938 205.796875 C 103.417969 204.113281 104.851562 202.519531 106.390625 201.023438 C 107.929688 199.523438 109.558594 198.132812 111.28125 196.84375 C 113 195.558594 114.796875 194.390625 116.671875 193.339844 C 118.542969 192.285156 120.476562 191.359375 122.472656 190.558594 C 124.464844 189.761719 126.5 189.09375 128.582031 188.558594 L 180.390625 175.808594 L 167.640625 227.636719 C 167.105469 229.714844 166.441406 231.753906 165.640625 233.746094 C 164.839844 235.738281 163.914062 237.671875 162.863281 239.546875 C 161.8125 241.417969 160.644531 243.214844 159.359375 244.9375 C 158.074219 246.65625 156.679688 248.285156 155.183594 249.824219 C 153.683594 251.363281 152.09375 252.800781 150.40625 254.132812 C 148.722656 255.464844 146.957031 256.679688 145.113281 257.78125 C 143.269531 258.882812 141.363281 259.859375 139.390625 260.714844 C 137.417969 261.566406 135.402344 262.289062 133.335938 262.878906 Z M 201.054688 312.546875 C 189.09375 303.828125 178.285156 293.867188 168.625 282.65625 L 233.480469 282.65625 C 223.820312 293.867188 213.011719 303.828125 201.054688 312.546875 Z M 166.054688 264.445312 C 170.070312 260.683594 173.570312 256.492188 176.554688 251.867188 C 179.539062 247.246094 181.917969 242.332031 183.695312 237.125 L 218.511719 237.125 C 220.285156 242.332031 222.664062 247.25 225.652344 251.871094 C 228.636719 256.492188 232.140625 260.683594 236.160156 264.445312 Z M 166.054688 264.445312 " fill-opacity="1" fill-rule="nonzero"/><g clip-path="url(#dc5bc52d18)"><path fill="#ffd72e" d="M 132.691406 214.394531 L 128.21875 214.394531 C 127.816406 214.394531 127.445312 214.609375 127.242188 214.953125 L 125.007812 218.761719 C 124.808594 219.105469 124.808594 219.53125 125.007812 219.875 L 127.242188 223.683594 C 127.445312 224.027344 127.816406 224.242188 128.21875 224.242188 L 132.691406 224.242188 C 133.09375 224.242188 133.464844 224.027344 133.667969 223.683594 L 135.902344 219.875 C 136.105469 219.53125 136.105469 219.105469 135.902344 218.761719 L 133.667969 214.953125 C 133.464844 214.609375 133.09375 214.394531 132.691406 214.394531 Z M 132.691406 214.394531 " fill-opacity="1" fill-rule="nonzero"/></g><g clip-path="url(#66731125ae)"><path fill="#ffd72e" d="M 132.691406 203.570312 L 128.21875 203.570312 C 127.816406 203.570312 127.445312 203.78125 127.242188 204.125 L 125.007812 207.9375 C 124.808594 208.28125 124.808594 208.703125 125.007812 209.046875 L 127.242188 212.859375 C 127.445312 213.203125 127.816406 213.414062 128.21875 213.414062 L 132.691406 213.414062 C 133.09375 213.414062 133.464844 213.203125 133.667969 212.859375 L 135.902344 209.046875 C 136.105469 208.703125 136.105469 208.28125 135.902344 207.9375 L 133.667969 204.125 C 133.464844 203.78125 133.09375 203.570312 132.691406 203.570312 Z M 132.691406 203.570312 " fill-opacity="1" fill-rule="nonzero"/></g><g clip-path="url(#bbd3d4801b)"><path fill="#ffd72e" d="M 142.277344 219.808594 L 137.804688 219.808594 C 137.402344 219.808594 137.03125 220.019531 136.828125 220.363281 L 134.59375 224.175781 C 134.394531 224.519531 134.394531 224.945312 134.59375 225.285156 L 136.828125 229.097656 C 137.03125 229.441406 137.402344 229.652344 137.804688 229.652344 L 142.277344 229.652344 C 142.679688 229.652344 143.050781 229.441406 143.253906 229.097656 L 145.488281 225.285156 C 145.691406 224.945312 145.691406 224.519531 145.488281 224.175781 L 143.253906 220.363281 C 143.050781 220.019531 142.679688 219.808594 142.277344 219.808594 Z M 142.277344 219.808594 " fill-opacity="1" fill-rule="nonzero"/></g><path fill="#ffd72e" d="M 142.277344 208.984375 L 137.804688 208.984375 C 137.402344 208.984375 137.03125 209.195312 136.828125 209.539062 L 134.59375 213.351562 C 134.394531 213.695312 134.394531 214.117188 134.59375 214.460938 L 136.828125 218.273438 C 137.03125 218.617188 137.402344 218.828125 137.804688 218.828125 L 142.277344 218.828125 C 142.679688 218.828125 143.050781 218.617188 143.253906 218.273438 L 145.488281 214.460938 C 145.691406 214.117188 145.691406 213.695312 145.488281 213.351562 L 143.253906 209.539062 C 143.050781 209.195312 142.679688 208.984375 142.277344 208.984375 Z M 142.277344 208.984375 " fill-opacity="1" fill-rule="nonzero"/><g clip-path="url(#4a71b2cf18)"><path fill="#ffd72e" d="M 142.277344 198.15625 L 137.804688 198.15625 C 137.402344 198.15625 137.03125 198.367188 136.828125 198.710938 L 134.59375 202.523438 C 134.394531 202.867188 134.394531 203.289062 134.59375 203.632812 L 136.828125 207.445312 C 137.03125 207.789062 137.402344 208 137.804688 208 L 142.277344 208 C 142.679688 208 143.050781 207.789062 143.253906 207.445312 L 145.488281 203.632812 C 145.691406 203.289062 145.691406 202.867188 145.488281 202.523438 L 143.253906 198.710938 C 143.050781 198.367188 142.679688 198.15625 142.277344 198.15625 Z M 142.277344 198.15625 " fill-opacity="1" fill-rule="nonzero"/></g><g clip-path="url(#8bc13cf298)"><path fill="#ffd72e" d="M 152.144531 214.394531 L 147.675781 214.394531 C 147.269531 214.394531 146.898438 214.609375 146.699219 214.953125 L 144.460938 218.761719 C 144.261719 219.105469 144.261719 219.53125 144.460938 219.875 L 146.699219 223.683594 C 146.898438 224.027344 147.269531 224.242188 147.675781 224.242188 L 152.144531 224.242188 C 152.546875 224.242188 152.917969 224.027344 153.121094 223.683594 L 155.355469 219.875 C 155.558594 219.53125 155.558594 219.105469 155.355469 218.761719 L 153.121094 214.953125 C 152.917969 214.609375 152.546875 214.394531 152.144531 214.394531 Z M 152.144531 214.394531 " fill-opacity="1" fill-rule="nonzero"/></g><g clip-path="url(#07fc053a79)"><path fill="#ffd72e" d="M 152.144531 203.570312 L 147.675781 203.570312 C 147.269531 203.570312 146.898438 203.78125 146.699219 204.125 L 144.460938 207.9375 C 144.261719 208.28125 144.261719 208.703125 144.460938 209.046875 L 146.699219 212.859375 C 146.898438 213.203125 147.269531 213.414062 147.675781 213.414062 L 152.144531 213.414062 C 152.546875 213.414062 152.917969 213.203125 153.121094 212.859375 L 155.355469 209.046875 C 155.558594 208.703125 155.558594 208.28125 155.355469 207.9375 L 153.121094 204.125 C 152.917969 203.78125 152.546875 203.570312 152.144531 203.570312 Z M 152.144531 203.570312 " fill-opacity="1" fill-rule="nonzero"/></g><g clip-path="url(#2edf43c557)"><path fill="#ffd72e" d="M 263.773438 214.394531 L 259.300781 214.394531 C 258.898438 214.394531 258.527344 214.609375 258.324219 214.953125 L 256.089844 218.761719 C 255.886719 219.105469 255.886719 219.53125 256.089844 219.875 L 258.324219 223.683594 C 258.527344 224.027344 258.898438 224.242188 259.300781 224.242188 L 263.773438 224.242188 C 264.175781 224.242188 264.546875 224.027344 264.75 223.683594 L 266.984375 219.875 C 267.183594 219.53125 267.183594 219.105469 266.984375 218.761719 L 264.75 214.953125 C 264.546875 214.609375 264.175781 214.394531 263.773438 214.394531 Z M 263.773438 214.394531 " fill-opacity="1" fill-rule="nonzero"/></g><g clip-path="url(#740b3ed8bb)"><path fill="#ffd72e" d="M 263.773438 203.570312 L 259.300781 203.570312 C 258.898438 203.570312 258.527344 203.78125 258.324219 204.125 L 256.089844 207.9375 C 255.886719 208.28125 255.886719 208.703125 256.089844 209.046875 L 258.324219 212.859375 C 258.527344 213.203125 258.898438 213.414062 259.300781 213.414062 L 263.773438 213.414062 C 264.175781 213.414062 264.546875 213.203125 264.75 212.859375 L 266.984375 209.046875 C 267.183594 208.703125 267.183594 208.28125 266.984375 207.9375 L 264.75 204.125 C 264.546875 203.78125 264.175781 203.570312 263.773438 203.570312 Z M 263.773438 203.570312 " fill-opacity="1" fill-rule="nonzero"/></g><g clip-path="url(#df14df90f8)"><path fill="#ffd72e" d="M 273.355469 219.808594 L 268.886719 219.808594 C 268.484375 219.808594 268.113281 220.019531 267.910156 220.363281 L 265.675781 224.175781 C 265.472656 224.519531 265.472656 224.945312 265.675781 225.285156 L 267.910156 229.097656 C 268.113281 229.441406 268.484375 229.652344 268.886719 229.652344 L 273.355469 229.652344 C 273.761719 229.652344 274.132812 229.441406 274.332031 229.097656 L 276.570312 225.285156 C 276.769531 224.945312 276.769531 224.519531 276.570312 224.175781 L 274.332031 220.363281 C 274.132812 220.019531 273.761719 219.808594 273.355469 219.808594 Z M 273.355469 219.808594 " fill-opacity="1" fill-rule="nonzero"/></g><path fill="#ffd72e" d="M 273.355469 208.984375 L 268.886719 208.984375 C 268.484375 208.984375 268.113281 209.195312 267.910156 209.539062 L 265.675781 213.351562 C 265.472656 213.695312 265.472656 214.117188 265.675781 214.460938 L 267.910156 218.273438 C 268.113281 218.617188 268.484375 218.828125 268.886719 218.828125 L 273.355469 218.828125 C 273.761719 218.828125 274.132812 218.617188 274.332031 218.273438 L 276.570312 214.460938 C 276.769531 214.117188 276.769531 213.695312 276.570312 213.351562 L 274.332031 209.539062 C 274.132812 209.195312 273.761719 208.984375 273.355469 208.984375 Z M 273.355469 208.984375 " fill-opacity="1" fill-rule="nonzero"/><g clip-path="url(#fa1bbf1c5c)"><path fill="#ffd72e" d="M 273.355469 198.15625 L 268.886719 198.15625 C 268.484375 198.15625 268.113281 198.367188 267.910156 198.710938 L 265.675781 202.523438 C 265.472656 202.867188 265.472656 203.289062 265.675781 203.632812 L 267.910156 207.445312 C 268.113281 207.789062 268.484375 208 268.886719 208 L 273.355469 208 C 273.761719 208 274.132812 207.789062 274.332031 207.445312 L 276.570312 203.632812 C 276.769531 203.289062 276.769531 202.867188 276.570312 202.523438 L 274.332031 198.710938 C 274.132812 198.367188 273.761719 198.15625 273.355469 198.15625 Z M 273.355469 198.15625 " fill-opacity="1" fill-rule="nonzero"/></g><g clip-path="url(#c7982b7b0e)"><path fill="#ffd72e" d="M 283.226562 214.394531 L 278.753906 214.394531 C 278.351562 214.394531 277.980469 214.609375 277.777344 214.953125 L 275.542969 218.761719 C 275.339844 219.105469 275.339844 219.53125 275.542969 219.875 L 277.777344 223.683594 C 277.980469 224.027344 278.351562 224.242188 278.753906 224.242188 L 283.226562 224.242188 C 283.628906 224.242188 284 224.027344 284.203125 223.683594 L 286.4375 219.875 C 286.636719 219.53125 286.636719 219.105469 286.4375 218.761719 L 284.203125 214.953125 C 284 214.609375 283.628906 214.394531 283.226562 214.394531 Z M 283.226562 214.394531 " fill-opacity="1" fill-rule="nonzero"/></g><g clip-path="url(#3cc916fabc)"><path fill="#ffd72e" d="M 283.226562 203.570312 L 278.753906 203.570312 C 278.351562 203.570312 277.980469 203.78125 277.777344 204.125 L 275.542969 207.9375 C 275.339844 208.28125 275.339844 208.703125 275.542969 209.046875 L 277.777344 212.859375 C 277.980469 213.203125 278.351562 213.414062 278.753906 213.414062 L 283.226562 213.414062 C 283.628906 213.414062 284 213.203125 284.203125 212.859375 L 286.4375 209.046875 C 286.636719 208.703125 286.636719 208.28125 286.4375 207.9375 L 284.203125 204.125 C 284 203.78125 283.628906 203.570312 283.226562 203.570312 Z M 283.226562 203.570312 " fill-opacity="1" fill-rule="nonzero"/></g></svg>